Involve-BoldOblique.ufo
<glyph name="parenright" format="2">
  <advance width="357"/>
  <unicode hex="0029"/>
  <outline>
    <contour>
      <point x="21" y="-137" type="line"/>
      <point x="233" y="-52"/>
      <point x="386" y="164"/>
      <point x="386" y="395" type="curve" smooth="yes"/>
      <point x="386" y="535"/>
      <point x="323" y="688"/>
      <point x="183" y="739" type="curve"/>
      <point x="156" y="594" type="line"/>
      <point x="214" y="551"/>
      <point x="248" y="464"/>
      <point x="248" y="371" type="curve" smooth="yes"/>
      <point x="248" y="224"/>
      <point x="168" y="88"/>
      <point x="47" y="7" type="curve"/>
    </contour>
  </outline>
</glyph>
<glyph name="five" format="2">
  <advance width="560"/>
  <unicode hex="0035"/>
  <outline>
    <contour>
      <point x="62" y="221" type="line"/>
      <point x="61" y="210"/>
      <point x="60" y="199"/>
      <point x="60" y="189" type="curve" smooth="yes"/>
      <point x="60" y="72"/>
      <point x="149" y="-13"/>
      <point x="276" y="-13" type="curve" smooth="yes"/>
      <point x="445" y="-13"/>
      <point x="580" y="138"/>
      <point x="580" y="302" type="curve" smooth="yes"/>
      <point x="580" y="418"/>
      <point x="504" y="499"/>
      <point x="387" y="499" type="curve" smooth="yes"/>
      <point x="353" y="499"/>
      <point x="330" y="494"/>
      <point x="289" y="478" type="curve"/>
      <point x="338" y="614" type="line"/>
      <point x="572" y="614" type="line"/>
      <point x="595" y="739" type="line"/>
      <point x="261" y="739" type="line"/>
      <point x="120" y="353" type="line"/>
      <point x="232" y="321" type="line"/>
      <point x="273" y="362"/>
      <point x="304" y="377"/>
      <point x="346" y="377" type="curve" smooth="yes"/>
      <point x="406" y="377"/>
      <point x="444" y="334"/>
      <point x="444" y="274" type="curve" smooth="yes"/>
      <point x="444" y="192"/>
      <point x="381" y="109"/>
      <point x="294" y="109" type="curve" smooth="yes"/>
      <point x="235" y="109"/>
      <point x="194" y="139"/>
      <point x="194" y="203" type="curve" smooth="yes"/>
      <point x="194" y="209"/>
      <point x="194" y="214"/>
      <point x="195" y="221" type="curve"/>
    </contour>
  </outline>
</glyph>
<glyph name="six" format="2">
  <advance width="560"/>
  <unicode hex="0036"/>
  <outline>
    <contour>
      <point x="64" y="191" type="curve" smooth="yes"/>
      <point x="64" y="71"/>
      <point x="150" y="-13"/>
      <point x="281" y="-13" type="curve" smooth="yes"/>
      <point x="455" y="-13"/>
      <point x="588" y="139"/>
      <point x="588" y="307" type="curve" smooth="yes"/>
      <point x="588" y="414"/>
      <point x="523" y="486"/>
      <point x="422" y="486" type="curve" smooth="yes"/>
      <point x="398" y="486"/>
      <point x="384" y="484"/>
      <point x="360" y="476" type="curve"/>
      <point x="586" y="739" type="line"/>
      <point x="427" y="739" type="line"/>
      <point x="180" y="449" type="line" smooth="yes"/>
      <point x="115" y="374"/>
      <point x="64" y="293"/>
    </contour>
    <contour>
      <point x="199" y="211" type="curve" smooth="yes"/>
      <point x="199" y="292"/>
      <point x="261" y="370"/>
      <point x="346" y="370" type="curve" smooth="yes"/>
      <point x="411" y="370"/>
      <point x="450" y="329"/>
      <point x="450" y="268" type="curve" smooth="yes"/>
      <point x="450" y="187"/>
      <point x="389" y="109"/>
      <point x="304" y="109" type="curve" smooth="yes"/>
      <point x="239" y="109"/>
      <point x="199" y="150"/>
    </contour>
  </outline>
</glyph>
<glyph name="semicolon" format="2">
  <advance width="281"/>
  <unicode hex="003B"/>
  <outline>
    <component base="comma" xOffset="10"/>
    <contour>
      <point x="142" y="369" type="line"/>
      <point x="275" y="369" type="line"/>
      <point x="300" y="502" type="line"/>
      <point x="167" y="502" type="line"/>
    </contour>
  </outline>
</glyph>
<glyph name="at" format="2">
  <advance width="814"/>
  <unicode hex="0040"/>
  <outline>
    <contour>
      <point x="603" y="107" type="line"/>
      <point x="552" y="74"/>
      <point x="504" y="60"/>
      <point x="445" y="60" type="curve" smooth="yes"/>
      <point x="286" y="60"/>
      <point x="171" y="150"/>
      <point x="171" y="315" type="curve" smooth="yes"/>
      <point x="171" y="518"/>
      <point x="349" y="694"/>
      <point x="552" y="694" type="curve" smooth="yes"/>
      <point x="698" y="694"/>
      <point x="787" y="607"/>
      <point x="787" y="474" type="curve" smooth="yes"/>
      <point x="787" y="397"/>
      <point x="739" y="237"/>
      <point x="650" y="237" type="curve" smooth="yes"/>
      <point x="634" y="237"/>
      <point x="627" y="242"/>
      <point x="627" y="255" type="curve" smooth="yes"/>
      <point x="627" y="265"/>
      <point x="629" y="276"/>
      <point x="632" y="285" type="curve" smooth="yes"/>
      <point x="719" y="573" type="line"/>
      <point x="623" y="573" type="line"/>
      <point x="606" y="519" type="line"/>
      <point x="581" y="562"/>
      <point x="553" y="577"/>
      <point x="499" y="577" type="curve" smooth="yes"/>
      <point x="355" y="577"/>
      <point x="249" y="429"/>
      <point x="249" y="294" type="curve" smooth="yes"/>
      <point x="249" y="207"/>
      <point x="298" y="154"/>
      <point x="384" y="154" type="curve" smooth="yes"/>
      <point x="438" y="154"/>
      <point x="475" y="171"/>
      <point x="507" y="208" type="curve"/>
      <point x="513" y="172"/>
      <point x="543" y="154"/>
      <point x="596" y="154" type="curve" smooth="yes"/>
      <point x="777" y="154"/>
      <point x="861" y="332"/>
      <point x="861" y="490" type="curve" smooth="yes"/>
      <point x="861" y="664"/>
      <point x="736" y="766"/>
      <point x="562" y="766" type="curve" smooth="yes"/>
      <point x="314" y="766"/>
      <point x="99" y="548"/>
      <point x="99" y="301" type="curve" smooth="yes"/>
      <point x="99" y="105"/>
      <point x="234" y="-13"/>
      <point x="430" y="-13" type="curve" smooth="yes"/>
      <point x="515" y="-13"/>
      <point x="575" y="4"/>
      <point x="638" y="47" type="curve"/>
    </contour>
    <contour>
      <point x="437" y="260" type="curve" smooth="yes"/>
      <point x="396" y="260"/>
      <point x="373" y="285"/>
      <point x="373" y="328" type="curve" smooth="yes"/>
      <point x="373" y="394"/>
      <point x="428" y="465"/>
      <point x="497" y="465" type="curve" smooth="yes"/>
      <point x="538" y="465"/>
      <point x="560" y="442"/>
      <point x="560" y="401" type="curve" smooth="yes"/>
      <point x="560" y="333"/>
      <point x="510" y="260"/>
    </contour>
  </outline>
</glyph>
<glyph name="C" format="2">
  <advance width="802"/>
  <unicode hex="0043"/>
  <outline>
    <contour>
      <point x="643" y="206" type="line"/>
      <point x="588" y="140"/>
      <point x="525" y="119"/>
      <point x="444" y="119" type="curve" smooth="yes"/>
      <point x="326" y="119"/>
      <point x="238" y="207"/>
      <point x="238" y="325" type="curve" smooth="yes"/>
      <point x="238" y="503"/>
      <point x="346" y="620"/>
      <point x="510" y="620" type="curve" smooth="yes"/>
      <point x="604" y="620"/>
      <point x="676" y="587"/>
      <point x="711" y="527" type="curve"/>
      <point x="864" y="527" type="line"/>
      <point x="827" y="664"/>
      <point x="696" y="752"/>
      <point x="531" y="752" type="curve" smooth="yes"/>
      <point x="280" y="752"/>
      <point x="98" y="563"/>
      <point x="98" y="301" type="curve" smooth="yes"/>
      <point x="98" y="118"/>
      <point x="234" y="-13"/>
      <point x="423" y="-13" type="curve" smooth="yes"/>
      <point x="594" y="-13"/>
      <point x="711" y="54"/>
      <point x="804" y="206" type="curve"/>
    </contour>
  </outline>
</glyph>
<glyph name="G" format="2">
  <advance width="857"/>
  <unicode hex="0047"/>
  <outline>
    <contour>
      <point x="387" y="249" type="line"/>
      <point x="693" y="249" type="line"/>
      <point x="638" y="167"/>
      <point x="550" y="119"/>
      <point x="452" y="119" type="curve" smooth="yes"/>
      <point x="324" y="119"/>
      <point x="238" y="203"/>
      <point x="238" y="321" type="curve" smooth="yes"/>
      <point x="238" y="482"/>
      <point x="377" y="620"/>
      <point x="537" y="620" type="curve" smooth="yes"/>
      <point x="623" y="620"/>
      <point x="688" y="586"/>
      <point x="722" y="522" type="curve"/>
      <point x="883" y="522" type="line"/>
      <point x="860" y="656"/>
      <point x="725" y="752"/>
      <point x="564" y="752" type="curve" smooth="yes"/>
      <point x="324" y="752"/>
      <point x="98" y="543"/>
      <point x="98" y="300" type="curve" smooth="yes"/>
      <point x="98" y="119"/>
      <point x="235" y="-13"/>
      <point x="436" y="-13" type="curve" smooth="yes"/>
      <point x="660" y="-13"/>
      <point x="857" y="157"/>
      <point x="894" y="377" type="curve"/>
      <point x="411" y="377" type="line"/>
    </contour>
  </outline>
</glyph>
<glyph name="K" format="2">
  <advance width="614"/>
  <unicode hex="004B"/>
  <outline>
    <contour>
      <point x="71" y="0" type="line"/>
      <point x="208" y="0" type="line"/>
      <point x="249" y="224" type="line"/>
      <point x="295" y="272" type="line"/>
      <point x="437" y="0" type="line"/>
      <point x="602" y="0" type="line"/>
      <point x="394" y="376" type="line"/>
      <point x="739" y="739" type="line"/>
      <point x="574" y="739" type="line"/>
      <point x="286" y="420" type="line"/>
      <point x="345" y="739" type="line"/>
      <point x="208" y="739" type="line"/>
    </contour>
  </outline>
  <guideline angle="79.5214" x="286" y="420"/>
  <guideline angle="297.474" x="268" y="325"/>
  <guideline angle="118.951" x="602" y="0"/>
  <guideline angle="46.4564" x="394" y="376"/>
</glyph>
<glyph name="O" format="2">
  <advance width="842"/>
  <unicode hex="004F"/>
  <outline>
    <contour>
      <point x="98" y="298" type="curve" smooth="yes"/>
      <point x="98" y="119"/>
      <point x="231" y="-13"/>
      <point x="423" y="-13" type="curve" smooth="yes"/>
      <point x="682" y="-13"/>
      <point x="881" y="182"/>
      <point x="881" y="441" type="curve" smooth="yes"/>
      <point x="881" y="618"/>
      <point x="752" y="752"/>
      <point x="566" y="752" type="curve" smooth="yes"/>
      <point x="299" y="752"/>
      <point x="98" y="566"/>
    </contour>
    <contour>
      <point x="238" y="322" type="curve" smooth="yes"/>
      <point x="238" y="491"/>
      <point x="364" y="620"/>
      <point x="533" y="620" type="curve" smooth="yes"/>
      <point x="659" y="620"/>
      <point x="741" y="537"/>
      <point x="741" y="419" type="curve" smooth="yes"/>
      <point x="741" y="250"/>
      <point x="617" y="119"/>
      <point x="446" y="119" type="curve" smooth="yes"/>
      <point x="322" y="119"/>
      <point x="238" y="205"/>
    </contour>
  </outline>
</glyph>
<glyph name="R" format="2">
  <advance width="604"/>
  <unicode hex="0052"/>
  <outline>
    <contour>
      <point x="71" y="0" type="line"/>
      <point x="208" y="0" type="line"/>
      <point x="321" y="608" type="line"/>
      <point x="382" y="608" type="line" smooth="yes"/>
      <point x="445" y="608"/>
      <point x="521" y="604"/>
      <point x="521" y="523" type="curve" smooth="yes"/>
      <point x="521" y="418"/>
      <point x="440" y="386"/>
      <point x="347" y="386" type="curve" smooth="yes"/>
      <point x="208" y="386" type="line"/>
      <point x="402" y="0" type="line"/>
      <point x="571" y="0" type="line"/>
      <point x="422" y="273" type="line"/>
      <point x="566" y="307"/>
      <point x="662" y="404"/>
      <point x="662" y="555" type="curve" smooth="yes"/>
      <point x="662" y="704"/>
      <point x="550" y="739"/>
      <point x="421" y="739" type="curve" smooth="yes"/>
      <point x="208" y="739" type="line"/>
    </contour>
  </outline>
</glyph>
<glyph name="c" format="2">
  <advance width="625"/>
  <unicode hex="0063"/>
  <outline>
    <contour>
      <point x="483" y="182" type="line"/>
      <point x="441" y="131"/>
      <point x="398" y="109"/>
      <point x="343" y="109" type="curve" smooth="yes"/>
      <point x="263" y="109"/>
      <point x="210" y="164"/>
      <point x="210" y="243" type="curve" smooth="yes"/>
      <point x="210" y="348"/>
      <point x="294" y="445"/>
      <point x="402" y="445" type="curve" smooth="yes"/>
      <point x="462" y="445"/>
      <point x="500" y="421"/>
      <point x="517" y="369" type="curve"/>
      <point x="667" y="369" type="line"/>
      <point x="646" y="496"/>
      <point x="556" y="567"/>
      <point x="425" y="567" type="curve" smooth="yes"/>
      <point x="243" y="567"/>
      <point x="74" y="408"/>
      <point x="74" y="224" type="curve" smooth="yes"/>
      <point x="74" y="88"/>
      <point x="176" y="-13"/>
      <point x="322" y="-13" type="curve" smooth="yes"/>
      <point x="452" y="-13"/>
      <point x="564" y="58"/>
      <point x="633" y="182" type="curve"/>
    </contour>
  </outline>
</glyph>
<glyph name="f" format="2">
  <advance width="294"/>
  <unicode hex="0066"/>
  <outline>
    <contour>
      <point x="68" y="0" type="line"/>
      <point x="201" y="0" type="line"/>
      <point x="281" y="433" type="line"/>
      <point x="356" y="433" type="line"/>
      <point x="377" y="544" type="line"/>
      <point x="302" y="544" type="line"/>
      <point x="314" y="605"/>
      <point x="340" y="611"/>
      <point x="397" y="611" type="curve"/>
      <point x="421" y="737" type="line"/>
      <point x="262" y="737"/>
      <point x="211" y="692"/>
      <point x="169" y="544" type="curve"/>
      <point x="121" y="544" type="line"/>
      <point x="100" y="433" type="line"/>
      <point x="148" y="433" type="line"/>
    </contour>
  </outline>
</glyph>
<glyph name="g" format="2">
  <advance width="663"/>
  <unicode hex="0067"/>
  <outline>
    <contour>
      <point x="29" y="-45" type="line"/>
      <point x="53" y="-156"/>
      <point x="145" y="-221"/>
      <point x="281" y="-221" type="curve" smooth="yes"/>
      <point x="491" y="-221"/>
      <point x="592" y="-87"/>
      <point x="628" y="105" type="curve" smooth="yes"/>
      <point x="712" y="554" type="line"/>
      <point x="585" y="554" type="line"/>
      <point x="572" y="484" type="line"/>
      <point x="540" y="540"/>
      <point x="486" y="567"/>
      <point x="406" y="567" type="curve" smooth="yes"/>
      <point x="217" y="567"/>
      <point x="74" y="398"/>
      <point x="74" y="216" type="curve" smooth="yes"/>
      <point x="74" y="80"/>
      <point x="161" y="-13"/>
      <point x="298" y="-13" type="curve" smooth="yes"/>
      <point x="376" y="-13"/>
      <point x="433" y="12"/>
      <point x="496" y="73" type="curve"/>
      <point x="469" y="-46"/>
      <point x="407" y="-104"/>
      <point x="308" y="-104" type="curve" smooth="yes"/>
      <point x="246" y="-104"/>
      <point x="211" y="-88"/>
      <point x="180" y="-45" type="curve"/>
    </contour>
    <contour>
      <point x="338" y="109" type="curve" smooth="yes"/>
      <point x="256" y="109"/>
      <point x="209" y="157"/>
      <point x="209" y="234" type="curve" smooth="yes"/>
      <point x="209" y="340"/>
      <point x="282" y="445"/>
      <point x="396" y="445" type="curve" smooth="yes"/>
      <point x="480" y="445"/>
      <point x="531" y="394"/>
      <point x="531" y="315" type="curve" smooth="yes"/>
      <point x="531" y="206"/>
      <point x="452" y="109"/>
    </contour>
  </outline>
</glyph>
<glyph name="h" format="2">
  <advance width="597"/>
  <unicode hex="0068"/>
  <outline>
    <contour>
      <point x="54" y="0" type="line"/>
      <point x="187" y="0" type="line"/>
      <point x="239" y="281" type="line" smooth="yes"/>
      <point x="254" y="364"/>
      <point x="286" y="445"/>
      <point x="386" y="445" type="curve" smooth="yes"/>
      <point x="445" y="445"/>
      <point x="472" y="420"/>
      <point x="472" y="356" type="curve" smooth="yes"/>
      <point x="472" y="336"/>
      <point x="469" y="311"/>
      <point x="464" y="283" type="curve" smooth="yes"/>
      <point x="412" y="0" type="line"/>
      <point x="545" y="0" type="line"/>
      <point x="603" y="313" type="line" smooth="yes"/>
      <point x="610" y="349"/>
      <point x="613" y="378"/>
      <point x="613" y="403" type="curve" smooth="yes"/>
      <point x="613" y="510"/>
      <point x="540" y="568"/>
      <point x="433" y="568" type="curve" smooth="yes"/>
      <point x="375" y="568"/>
      <point x="330" y="552"/>
      <point x="283" y="516" type="curve"/>
      <point x="324" y="739" type="line"/>
      <point x="191" y="739" type="line"/>
    </contour>
  </outline>
</glyph>
<glyph name="m" format="2">
  <advance width="937"/>
  <unicode hex="006D"/>
  <outline>
    <contour>
      <point x="54" y="0" type="line"/>
      <point x="187" y="0" type="line"/>
      <point x="238" y="273" type="line" smooth="yes"/>
      <point x="253" y="356"/>
      <point x="273" y="445"/>
      <point x="378" y="445" type="curve" smooth="yes"/>
      <point x="435" y="445"/>
      <point x="466" y="418"/>
      <point x="466" y="362" type="curve" smooth="yes"/>
      <point x="466" y="346"/>
      <point x="463" y="327"/>
      <point x="459" y="304" type="curve" smooth="yes"/>
      <point x="403" y="0" type="line"/>
      <point x="536" y="0" type="line"/>
      <point x="587" y="273" type="line" smooth="yes"/>
      <point x="602" y="355"/>
      <point x="628" y="445"/>
      <point x="730" y="445" type="curve" smooth="yes"/>
      <point x="785" y="445"/>
      <point x="815" y="416"/>
      <point x="815" y="362" type="curve" smooth="yes"/>
      <point x="815" y="346"/>
      <point x="812" y="327"/>
      <point x="808" y="304" type="curve" smooth="yes"/>
      <point x="752" y="0" type="line"/>
      <point x="885" y="0" type="line"/>
      <point x="944" y="320" type="line" smooth="yes"/>
      <point x="949" y="348"/>
      <point x="952" y="374"/>
      <point x="952" y="397" type="curve" smooth="yes"/>
      <point x="952" y="513"/>
      <point x="883" y="567"/>
      <point x="765" y="567" type="curve" smooth="yes"/>
      <point x="687" y="567"/>
      <point x="628" y="541"/>
      <point x="572" y="481" type="curve"/>
      <point x="545" y="542"/>
      <point x="502" y="567"/>
      <point x="425" y="567" type="curve" smooth="yes"/>
      <point x="360" y="567"/>
      <point x="317" y="549"/>
      <point x="269" y="502" type="curve"/>
      <point x="279" y="554" type="line"/>
      <point x="157" y="554" type="line"/>
    </contour>
  </outline>
</glyph>
<glyph name="o" format="2">
  <advance width="645"/>
  <unicode hex="006F"/>
  <outline>
    <contour>
      <point x="74" y="224" type="curve" smooth="yes"/>
      <point x="74" y="89"/>
      <point x="176" y="-13"/>
      <point x="321" y="-13" type="curve" smooth="yes"/>
      <point x="501" y="-13"/>
      <point x="673" y="147"/>
      <point x="673" y="329" type="curve" smooth="yes"/>
      <point x="673" y="464"/>
      <point x="573" y="567"/>
      <point x="430" y="567" type="curve" smooth="yes"/>
      <point x="248" y="567"/>
      <point x="74" y="408"/>
    </contour>
    <contour>
      <point x="210" y="245" type="curve" smooth="yes"/>
      <point x="210" y="344"/>
      <point x="300" y="445"/>
      <point x="402" y="445" type="curve" smooth="yes"/>
      <point x="482" y="445"/>
      <point x="537" y="387"/>
      <point x="537" y="309" type="curve" smooth="yes"/>
      <point x="537" y="207"/>
      <point x="446" y="109"/>
      <point x="342" y="109" type="curve" smooth="yes"/>
      <point x="264" y="109"/>
      <point x="210" y="168"/>
    </contour>
  </outline>
</glyph>
<glyph name="braceleft" format="2">
  <advance width="335"/>
  <unicode hex="007B"/>
  <outline>
    <contour>
      <point x="296" y="-48" type="line"/>
      <point x="246" y="-44"/>
      <point x="229" y="-37"/>
      <point x="229" y="-2" type="curve" smooth="yes"/>
      <point x="229" y="12"/>
      <point x="232" y="30"/>
      <point x="236" y="54" type="curve" smooth="yes"/>
      <point x="259" y="177" type="line" smooth="yes"/>
      <point x="262" y="194"/>
      <point x="264" y="209"/>
      <point x="264" y="222" type="curve" smooth="yes"/>
      <point x="264" y="269"/>
      <point x="242" y="292"/>
      <point x="193" y="305" type="curve"/>
      <point x="263" y="323"/>
      <point x="292" y="356"/>
      <point x="306" y="434" type="curve" smooth="yes"/>
      <point x="329" y="557" type="line" smooth="yes"/>
      <point x="345" y="642"/>
      <point x="355" y="653"/>
      <point x="427" y="659" type="curve"/>
      <point x="442" y="739" type="line"/>
      <point x="298" y="739"/>
      <point x="252" y="708"/>
      <point x="232" y="601" type="curve" smooth="yes"/>
      <point x="203" y="444" type="line" smooth="yes"/>
      <point x="192" y="384"/>
      <point x="161" y="353"/>
      <point x="104" y="346" type="curve"/>
      <point x="89" y="265" type="line"/>
      <point x="134" y="259"/>
      <point x="155" y="238"/>
      <point x="155" y="197" type="curve" smooth="yes"/>
      <point x="155" y="188"/>
      <point x="154" y="178"/>
      <point x="152" y="167" type="curve" smooth="yes"/>
      <point x="123" y="10" type="line" smooth="yes"/>
      <point x="120" y="-6"/>
      <point x="118" y="-21"/>
      <point x="118" y="-34" type="curve" smooth="yes"/>
      <point x="118" y="-102"/>
      <point x="164" y="-128"/>
      <point x="281" y="-128" type="curve"/>
    </contour>
  </outline>
</glyph>
<glyph name="asciitilde" format="2">
  <advance width="600"/>
  <unicode hex="007E"/>
  <outline>
    <contour>
      <point x="151" y="214" type="line"/>
      <point x="179" y="254"/>
      <point x="214" y="295"/>
      <point x="253" y="295" type="curve" smooth="yes"/>
      <point x="268" y="295"/>
      <point x="280" y="291"/>
      <point x="313" y="276" type="curve" smooth="yes"/>
      <point x="363" y="254" type="line" smooth="yes"/>
      <point x="396" y="239"/>
      <point x="429" y="230"/>
      <point x="450" y="230" type="curve" smooth="yes"/>
      <point x="504" y="230"/>
      <point x="548" y="262"/>
      <point x="616" y="347" type="curve"/>
      <point x="566" y="421" type="line"/>
      <point x="532" y="374"/>
      <point x="498" y="347"/>
      <point x="484" y="347" type="curve" smooth="yes"/>
      <point x="467" y="347"/>
      <point x="443" y="355"/>
      <point x="408" y="370" type="curve" smooth="yes"/>
      <point x="346" y="396" type="line" smooth="yes"/>
      <point x="323" y="406"/>
      <point x="296" y="412"/>
      <point x="272" y="412" type="curve" smooth="yes"/>
      <point x="206" y="412"/>
      <point x="145" y="344"/>
      <point x="102" y="289" type="curve"/>
    </contour>
  </outline>
</glyph>
<glyph name="twosuperior" format="2">
  <advance width="336"/>
  <unicode hex="00B2"/>
  <outline>
    <contour>
      <point x="68" y="296" type="line"/>
      <point x="379" y="296" type="line"/>
      <point x="394" y="376" type="line"/>
      <point x="213" y="376" type="line"/>
      <point x="321" y="451" type="line" smooth="yes"/>
      <point x="380" y="492"/>
      <point x="440" y="553"/>
      <point x="440" y="629" type="curve" smooth="yes"/>
      <point x="440" y="699"/>
      <point x="387" y="747"/>
      <point x="307" y="747" type="curve" smooth="yes"/>
      <point x="203" y="747"/>
      <point x="137" y="679"/>
      <point x="118" y="582" type="curve"/>
      <point x="205" y="582" type="line"/>
      <point x="216" y="637"/>
      <point x="249" y="668"/>
      <point x="294" y="668" type="curve" smooth="yes"/>
      <point x="329" y="668"/>
      <point x="351" y="646"/>
      <point x="351" y="615" type="curve" smooth="yes"/>
      <point x="351" y="579"/>
      <point x="336" y="561"/>
      <point x="279" y="518" type="curve" smooth="yes"/>
      <point x="82" y="370" type="line"/>
    </contour>
  </outline>
</glyph>
<glyph name="onehalf" format="2">
  <advance width="840"/>
  <unicode hex="00BD"/>
  <outline>
    <contour>
      <point x="152" y="0" type="line"/>
      <point x="247" y="0" type="line"/>
      <point x="690" y="739" type="line"/>
      <point x="595" y="739" type="line"/>
    </contour>
    <contour>
      <point x="161" y="296" type="line"/>
      <point x="249" y="296" type="line"/>
      <point x="331" y="739" type="line"/>
      <point x="184" y="739" type="line"/>
      <point x="169" y="659" type="line"/>
      <point x="228" y="659" type="line"/>
    </contour>
    <contour>
      <point x="470" y="0" type="line"/>
      <point x="781" y="0" type="line"/>
      <point x="796" y="80" type="line"/>
      <point x="615" y="80" type="line"/>
      <point x="723" y="155" type="line" smooth="yes"/>
      <point x="783" y="197"/>
      <point x="842" y="255"/>
      <point x="842" y="333" type="curve" smooth="yes"/>
      <point x="842" y="403"/>
      <point x="790" y="451"/>
      <point x="710" y="451" type="curve" smooth="yes"/>
      <point x="606" y="451"/>
      <point x="538" y="383"/>
      <point x="520" y="286" type="curve"/>
      <point x="607" y="286" type="line"/>
      <point x="618" y="341"/>
      <point x="651" y="372"/>
      <point x="696" y="372" type="curve" smooth="yes"/>
      <point x="731" y="372"/>
      <point x="753" y="350"/>
      <point x="753" y="319" type="curve" smooth="yes"/>
      <point x="753" y="283"/>
      <point x="711" y="246"/>
      <point x="681" y="222" type="curve" smooth="yes"/>
      <point x="484" y="74" type="line"/>
    </contour>
  </outline>
</glyph>
<glyph name="questiondown" format="2">
  <advance width="519"/>
  <unicode hex="00BF"/>
  <outline>
    <contour>
      <point x="361" y="34" type="line"/>
      <point x="341" y="-33"/>
      <point x="305" y="-66"/>
      <point x="251" y="-66" type="curve" smooth="yes"/>
      <point x="203" y="-66"/>
      <point x="171" y="-36"/>
      <point x="171" y="8" type="curve" smooth="yes"/>
      <point x="171" y="49"/>
      <point x="201" y="87"/>
      <point x="234" y="112" type="curve" smooth="yes"/>
      <point x="328" y="183"/>
      <point x="375" y="229"/>
      <point x="400" y="352" type="curve" smooth="yes"/>
      <point x="403" y="367" type="line"/>
      <point x="270" y="367" type="line"/>
      <point x="268" y="354" type="line" smooth="yes"/>
      <point x="257" y="283"/>
      <point x="239" y="257"/>
      <point x="176" y="210" type="curve" smooth="yes"/>
      <point x="94" y="149"/>
      <point x="36" y="90"/>
      <point x="36" y="-16" type="curve" smooth="yes"/>
      <point x="36" y="-123"/>
      <point x="110" y="-198"/>
      <point x="223" y="-198" type="curve" smooth="yes"/>
      <point x="368" y="-198"/>
      <point x="458" y="-96"/>
      <point x="494" y="34" type="curve"/>
    </contour>
    <contour>
      <point x="281" y="426" type="line"/>
      <point x="414" y="426" type="line"/>
      <point x="438" y="554" type="line"/>
      <point x="305" y="554" type="line"/>
    </contour>
  </outline>
</glyph>
<glyph name="Aacute" format="2">
  <advance width="740"/>
  <unicode hex="00C1"/>
  <outline>
    <component base="A"/>
    <contour>
      <point x="461" y="788" type="line"/>
      <point x="710" y="908" type="line"/>
      <point x="673" y="1000" type="line"/>
      <point x="425" y="866" type="line"/>
    </contour>
  </outline>
</glyph>
<glyph name="Aring" format="2">
  <advance width="740"/>
  <unicode hex="00C5"/>
  <outline>
    <component base="A"/>
    <contour>
      <point x="430" y="869" type="curve" smooth="yes"/>
      <point x="430" y="820"/>
      <point x="465" y="785"/>
      <point x="515" y="785" type="curve" smooth="yes"/>
      <point x="586" y="785"/>
      <point x="639" y="838"/>
      <point x="639" y="907" type="curve" smooth="yes"/>
      <point x="639" y="956"/>
      <point x="604" y="991"/>
      <point x="555" y="991" type="curve" smooth="yes"/>
      <point x="483" y="991"/>
      <point x="430" y="939"/>
    </contour>
    <contour>
      <point x="498" y="881" type="curve" smooth="yes"/>
      <point x="498" y="905"/>
      <point x="517" y="924"/>
      <point x="540" y="924" type="curve" smooth="yes"/>
      <point x="561" y="924"/>
      <point x="571" y="912"/>
      <point x="571" y="895" type="curve" smooth="yes"/>
      <point x="571" y="870"/>
      <point x="554" y="852"/>
      <point x="528" y="852" type="curve" smooth="yes"/>
      <point x="510" y="852"/>
      <point x="498" y="864"/>
    </contour>
  </outline>
</glyph>
<glyph name="Ccedilla" format="2">
  <advance width="802"/>
  <unicode hex="00C7"/>
  <outline>
    <component base="C"/>
    <contour>
      <point x="282" y="-166" type="line"/>
      <point x="282" y="-216"/>
      <point x="315" y="-251"/>
      <point x="366" y="-251" type="curve"/>
      <point x="431" y="-251"/>
      <point x="483" y="-196"/>
      <point x="483" y="-132" type="curve" smooth="yes"/>
      <point x="483" y="-86"/>
      <point x="453" y="-51"/>
      <point x="409" y="-51" type="curve" smooth="yes"/>
      <point x="400" y="-51"/>
      <point x="392" y="-53"/>
      <point x="378" y="-58" type="curve"/>
      <point x="410" y="0" type="line"/>
      <point x="361" y="6" type="line"/>
      <point x="302" y="-107" type="line"/>
      <point x="350" y="-133" type="line"/>
      <point x="367" y="-113"/>
      <point x="378" y="-106"/>
      <point x="393" y="-106" type="curve" smooth="yes"/>
      <point x="411" y="-106"/>
      <point x="424" y="-121"/>
      <point x="424" y="-141" type="curve" smooth="yes"/>
      <point x="424" y="-144"/>
      <point x="424" y="-147"/>
      <point x="423" y="-150" type="curve"/>
      <point x="418" y="-176"/>
      <point x="398" y="-196"/>
      <point x="376" y="-196" type="curve" smooth="yes"/>
      <point x="359" y="-196"/>
      <point x="348" y="-186"/>
      <point x="344" y="-166" type="curve"/>
    </contour>
  </outline>
</glyph>
<glyph name="Ograve" format="2">
  <advance width="842"/>
  <unicode hex="00D2"/>
  <outline>
    <component base="O"/>
    <contour>
      <point x="451" y="912" type="line"/>
      <point x="654" y="788" type="line"/>
      <point x="722" y="867" type="line"/>
      <point x="524" y="1000" type="line"/>
    </contour>
  </outline>
</glyph>
<glyph name="Odieresis" format="2">
  <advance width="842"/>
  <unicode hex="00D6"/>
  <outline>
    <component base="O"/>
    <contour>
      <point x="399" y="805" type="line"/>
      <point x="532" y="805" type="line"/>
      <point x="557" y="938" type="line"/>
      <point x="424" y="938" type="line"/>
    </contour>
    <contour>
      <point x="609" y="805" type="line"/>
      <point x="742" y="805" type="line"/>
      <point x="767" y="938" type="line"/>
      <point x="634" y="938" type="line"/>
    </contour>
  </outline>
</glyph>
<glyph name="germandbls" format="2">
  <advance width="616"/>
  <unicode hex="00DF"/>
  <outline>
    <contour>
      <point x="54" y="0" type="line"/>
      <point x="176" y="0" type="line"/>
      <point x="191" y="79" type="line"/>
      <point x="217" y="17"/>
      <point x="269" y="-13"/>
      <point x="351" y="-13" type="curve" smooth="yes"/>
      <point x="498" y="-13"/>
      <point x="631" y="106"/>
      <point x="631" y="256" type="curve" smooth="yes"/>
      <point x="631" y="343"/>
      <point x="572" y="389"/>
      <point x="494" y="408" type="curve"/>
      <point x="562" y="443"/>
      <point x="598" y="509"/>
      <point x="598" y="584" type="curve" smooth="yes"/>
      <point x="598" y="682"/>
      <point x="524" y="752"/>
      <point x="414" y="752" type="curve" smooth="yes"/>
      <point x="257" y="752"/>
      <point x="170" y="627"/>
      <point x="144" y="487" type="curve" smooth="yes"/>
    </contour>
    <contour>
      <point x="222" y="189" type="line"/>
      <point x="280" y="503" type="line" smooth="yes"/>
      <point x="296" y="588"/>
      <point x="333" y="630"/>
      <point x="391" y="630" type="curve" smooth="yes"/>
      <point x="435" y="630"/>
      <point x="461" y="603"/>
      <point x="461" y="560" type="curve" smooth="yes"/>
      <point x="461" y="499"/>
      <point x="414" y="433"/>
      <point x="349" y="433" type="curve" smooth="yes"/>
      <point x="338" y="433" type="line"/>
      <point x="316" y="315" type="line"/>
      <point x="385" y="315" type="line" smooth="yes"/>
      <point x="450" y="315"/>
      <point x="493" y="295"/>
      <point x="493" y="226" type="curve" smooth="yes"/>
      <point x="493" y="166"/>
      <point x="445" y="109"/>
      <point x="383" y="109" type="curve" smooth="yes"/>
      <point x="343" y="109"/>
      <point x="302" y="126"/>
      <point x="302" y="170" type="curve" smooth="yes"/>
      <point x="302" y="176"/>
      <point x="303" y="182"/>
      <point x="304" y="189" type="curve"/>
    </contour>
  </outline>
</glyph>
<glyph name="agrave" format="2">
  <advance width="667"/>
  <unicode hex="00E0"/>
  <outline>
    <component base="a"/>
    <contour>
      <point x="305" y="737" type="line"/>
      <point x="508" y="613" type="line"/>
      <point x="575" y="692" type="line"/>
      <point x="378" y="825" type="line"/>
    </contour>
  </outline>
</glyph>
<glyph name="aacute" format="2">
  <advance width="667"/>
  <unicode hex="00E1"/>
  <outline>
    <component base="a"/>
    <contour>
      <point x="407" y="613" type="line"/>
      <point x="656" y="733" type="line"/>
      <point x="619" y="825" type="line"/>
      <point x="370" y="691" type="line"/>
    </contour>
  </outline>
</glyph>
<glyph name="adieresis" format="2">
  <advance width="667"/>
  <unicode hex="00E4"/>
  <outline>
    <component base="a"/>
    <contour>
      <point x="289" y="630" type="line"/>
      <point x="422" y="630" type="line"/>
      <point x="446" y="763" type="line"/>
      <point x="313" y="763" type="line"/>
    </contour>
    <contour>
      <point x="499" y="630" type="line"/>
      <point x="632" y="630" type="line"/>
      <point x="656" y="763" type="line"/>
      <point x="523" y="763" type="line"/>
    </contour>
  </outline>
</glyph>
<glyph name="aring" format="2">
  <advance width="667"/>
  <unicode hex="00E5"/>
  <outline>
    <component base="a"/>
    <contour>
      <point x="371" y="694" type="curve" smooth="yes"/>
      <point x="371" y="646"/>
      <point x="406" y="610"/>
      <point x="457" y="610" type="curve" smooth="yes"/>
      <point x="520" y="610"/>
      <point x="581" y="668"/>
      <point x="581" y="732" type="curve" smooth="yes"/>
      <point x="581" y="779"/>
      <point x="546" y="816"/>
      <point x="496" y="816" type="curve" smooth="yes"/>
      <point x="432" y="816"/>
      <point x="371" y="759"/>
    </contour>
    <contour>
      <point x="440" y="706" type="curve" smooth="yes"/>
      <point x="440" y="727"/>
      <point x="457" y="749"/>
      <point x="482" y="749" type="curve" smooth="yes"/>
      <point x="503" y="749"/>
      <point x="513" y="736"/>
      <point x="513" y="717" type="curve" smooth="yes"/>
      <point x="513" y="696"/>
      <point x="492" y="677"/>
      <point x="472" y="677" type="curve" smooth="yes"/>
      <point x="449" y="677"/>
      <point x="440" y="691"/>
    </contour>
  </outline>
</glyph>
<glyph name="ccedilla" format="2">
  <advance width="625"/>
  <unicode hex="00E7"/>
  <outline>
    <component base="c"/>
    <contour>
      <point x="192" y="-166" type="line"/>
      <point x="192" y="-216"/>
      <point x="224" y="-251"/>
      <point x="275" y="-251" type="curve" smooth="yes"/>
      <point x="344" y="-251"/>
      <point x="391" y="-195"/>
      <point x="391" y="-129" type="curve" smooth="yes"/>
      <point x="391" y="-83"/>
      <point x="363" y="-51"/>
      <point x="320" y="-51" type="curve" smooth="yes"/>
      <point x="309" y="-51"/>
      <point x="301" y="-52"/>
      <point x="287" y="-58" type="curve"/>
      <point x="323" y="0" type="line"/>
      <point x="279" y="4" type="line"/>
      <point x="211" y="-107" type="line"/>
      <point x="258" y="-133" type="line"/>
      <point x="274" y="-115"/>
      <point x="287" y="-109"/>
      <point x="301" y="-109" type="curve" smooth="yes"/>
      <point x="320" y="-109"/>
      <point x="332" y="-122"/>
      <point x="332" y="-142" type="curve" smooth="yes"/>
      <point x="332" y="-168"/>
      <point x="313" y="-196"/>
      <point x="285" y="-196" type="curve" smooth="yes"/>
      <point x="267" y="-196"/>
      <point x="256" y="-186"/>
      <point x="252" y="-166" type="curve"/>
    </contour>
  </outline>
</glyph>
<glyph name="egrave" format="2">
  <advance width="634"/>
  <unicode hex="00E8"/>
  <outline>
    <component base="e"/>
    <contour>
      <point x="278" y="737" type="line"/>
      <point x="481" y="613" type="line"/>
      <point x="548" y="692" type="line"/>
      <point x="351" y="825" type="line"/>
    </contour>
  </outline>
</glyph>
<glyph name="eacute" format="2">
  <advance width="634"/>
  <unicode hex="00E9"/>
  <outline>
    <component base="e"/>
    <contour>
      <point x="390" y="613" type="line"/>
      <point x="639" y="733" type="line"/>
      <point x="602" y="825" type="line"/>
      <point x="353" y="691" type="line"/>
    </contour>
  </outline>
</glyph>
<glyph name="ecircumflex" format="2">
  <advance width="634"/>
  <unicode hex="00EA"/>
  <outline>
    <component base="e"/>
    <contour>
      <point x="241" y="630" type="line"/>
      <point x="388" y="630" type="line"/>
      <point x="454" y="694" type="line"/>
      <point x="495" y="630" type="line"/>
      <point x="640" y="630" type="line"/>
      <point x="520" y="768" type="line"/>
      <point x="413" y="768" type="line"/>
    </contour>
  </outline>
</glyph>
<glyph name="edieresis" format="2">
  <advance width="634"/>
  <unicode hex="00EB"/>
  <outline>
    <component base="e"/>
    <contour>
      <point x="270" y="630" type="line"/>
      <point x="403" y="630" type="line"/>
      <point x="427" y="763" type="line"/>
      <point x="294" y="763" type="line"/>
    </contour>
    <contour>
      <point x="480" y="630" type="line"/>
      <point x="613" y="630" type="line"/>
      <point x="637" y="763" type="line"/>
      <point x="504" y="763" type="line"/>
    </contour>
  </outline>
</glyph>
<glyph name="ograve" format="2">
  <advance width="645"/>
  <unicode hex="00F2"/>
  <outline>
    <component base="o"/>
    <contour>
      <point x="287" y="737" type="line"/>
      <point x="490" y="613" type="line"/>
      <point x="557" y="692" type="line"/>
      <point x="360" y="825" type="line"/>
    </contour>
  </outline>
</glyph>
<glyph name="oacute" format="2">
  <advance width="645"/>
  <unicode hex="00F3"/>
  <outline>
    <component base="o"/>
    <contour>
      <point x="382" y="613" type="line"/>
      <point x="631" y="733" type="line"/>
      <point x="594" y="825" type="line"/>
      <point x="345" y="691" type="line"/>
    </contour>
  </outline>
</glyph>
<glyph name="ocircumflex" format="2">
  <advance width="645"/>
  <unicode hex="00F4"/>
  <outline>
    <component base="o"/>
    <contour>
      <point x="240" y="630" type="line"/>
      <point x="387" y="630" type="line"/>
      <point x="453" y="694" type="line"/>
      <point x="494" y="630" type="line"/>
      <point x="639" y="630" type="line"/>
      <point x="519" y="768" type="line"/>
      <point x="412" y="768" type="line"/>
    </contour>
  </outline>
</glyph>
<glyph name="otilde" format="2">
  <advance width="645"/>
  <unicode hex="00F5"/>
  <outline>
    <component base="o"/>
    <contour>
      <point x="332" y="636" type="line"/>
      <point x="374" y="659"/>
      <point x="381" y="661"/>
      <point x="407" y="661" type="curve" smooth="yes"/>
      <point x="424" y="661"/>
      <point x="441" y="657"/>
      <point x="458" y="649" type="curve" smooth="yes"/>
      <point x="473" y="642"/>
      <point x="500" y="636"/>
      <point x="515" y="636" type="curve" smooth="yes"/>
      <point x="550" y="636"/>
      <point x="580" y="652"/>
      <point x="619" y="691" type="curve"/>
      <point x="580" y="772" type="line"/>
      <point x="555" y="748"/>
      <point x="533" y="738"/>
      <point x="507" y="738" type="curve" smooth="yes"/>
      <point x="493" y="738"/>
      <point x="481" y="741"/>
      <point x="462" y="749" type="curve" smooth="yes"/>
      <point x="435" y="761"/>
      <point x="426" y="763"/>
      <point x="404" y="763" type="curve" smooth="yes"/>
      <point x="362" y="763"/>
      <point x="334" y="751"/>
      <point x="293" y="716" type="curve"/>
    </contour>
  </outline>
</glyph>
<glyph name="odieresis" format="2">
  <advance width="645"/>
  <unicode hex="00F6"/>
  <outline>
    <component base="o"/>
    <contour>
      <point x="268" y="630" type="line"/>
      <point x="401" y="630" type="line"/>
      <point x="425" y="763" type="line"/>
      <point x="292" y="763" type="line"/>
    </contour>
    <contour>
      <point x="478" y="630" type="line"/>
      <point x="611" y="630" type="line"/>
      <point x="635" y="763" type="line"/>
      <point x="502" y="763" type="line"/>
    </contour>
  </outline>
</glyph>
<glyph name="breve" format="2">
  <advance width="458"/>
  <unicode hex="02D8"/>
  <outline>
    <contour>
      <point x="207" y="769" type="line"/>
      <point x="207" y="673"/>
      <point x="264" y="630"/>
      <point x="347" y="630" type="curve" smooth="yes"/>
      <point x="442" y="630"/>
      <point x="518" y="685"/>
      <point x="537" y="769" type="curve"/>
      <point x="435" y="769" type="line"/>
      <point x="425" y="741"/>
      <point x="400" y="726"/>
      <point x="365" y="726" type="curve" smooth="yes"/>
      <point x="334" y="726"/>
      <point x="311" y="744"/>
      <point x="311" y="769" type="curve"/>
    </contour>
  </outline>
</glyph>
<glyph name="brevecomb" format="2">
  <unicode hex="0306"/>
  <outline>
    <contour>
      <point x="-345" y="769" type="line"/>
      <point x="-345" y="687"/>
      <point x="-288" y="630"/>
      <point x="-205" y="630" type="curve" smooth="yes"/>
      <point x="-110" y="630"/>
      <point x="-34" y="685"/>
      <point x="-15" y="769" type="curve"/>
      <point x="-117" y="769" type="line"/>
      <point x="-127" y="741"/>
      <point x="-152" y="726"/>
      <point x="-187" y="726" type="curve" smooth="yes"/>
      <point x="-223" y="726"/>
      <point x="-247" y="743"/>
      <point x="-247" y="769" type="curve"/>
    </contour>
  </outline>
</glyph>
<glyph name="Ljecyr" format="2">
  <advance width="1012"/>
  <unicode hex="0409"/>
  <outline>
    <contour>
      <point x="2" y="0" type="line"/>
      <point x="167" y="0" type="line"/>
      <point x="568" y="513" type="line"/>
      <point x="473" y="0" type="line"/>
      <point x="661" y="0" type="line" smooth="yes"/>
      <point x="837" y="0"/>
      <point x="1031" y="49"/>
      <point x="1031" y="269" type="curve" smooth="yes"/>
      <point x="1031" y="445"/>
      <point x="875" y="450"/>
      <point x="742" y="450" type="curve" smooth="yes"/>
      <point x="693" y="450" type="line"/>
      <point x="747" y="739" type="line"/>
      <point x="610" y="739" type="line"/>
    </contour>
    <contour>
      <point x="634" y="131" type="line"/>
      <point x="669" y="319" type="line"/>
      <point x="769" y="319" type="line" smooth="yes"/>
      <point x="852" y="319"/>
      <point x="890" y="299"/>
      <point x="890" y="241" type="curve" smooth="yes"/>
      <point x="890" y="135"/>
      <point x="766" y="131"/>
      <point x="689" y="131" type="curve" smooth="yes"/>
    </contour>
  </outline>
</glyph>
<glyph name="Njecyr" format="2">
  <advance width="1004"/>
  <unicode hex="040A"/>
  <outline>
    <contour>
      <point x="71" y="0" type="line"/>
      <point x="208" y="0" type="line"/>
      <point x="267" y="319" type="line"/>
      <point x="524" y="319" type="line"/>
      <point x="465" y="0" type="line"/>
      <point x="653" y="0" type="line" smooth="yes"/>
      <point x="829" y="0"/>
      <point x="1023" y="49"/>
      <point x="1023" y="269" type="curve" smooth="yes"/>
      <point x="1023" y="445"/>
      <point x="867" y="450"/>
      <point x="734" y="450" type="curve" smooth="yes"/>
      <point x="685" y="450" type="line"/>
      <point x="739" y="739" type="line"/>
      <point x="602" y="739" type="line"/>
      <point x="548" y="450" type="line"/>
      <point x="291" y="450" type="line"/>
      <point x="345" y="739" type="line"/>
      <point x="208" y="739" type="line"/>
    </contour>
    <contour>
      <point x="626" y="131" type="line"/>
      <point x="661" y="319" type="line"/>
      <point x="781" y="319" type="line" smooth="yes"/>
      <point x="835" y="319"/>
      <point x="882" y="301"/>
      <point x="882" y="241" type="curve" smooth="yes"/>
      <point x="882" y="135"/>
      <point x="758" y="131"/>
      <point x="681" y="131" type="curve" smooth="yes"/>
    </contour>
  </outline>
</glyph>
<glyph name="Efcyr" format="2">
  <advance width="811"/>
  <unicode hex="0424"/>
  <outline>
    <contour>
      <point x="337" y="0" type="line"/>
      <point x="474" y="0" type="line"/>
      <point x="485" y="57" type="line"/>
      <point x="669" y="84"/>
      <point x="856" y="231"/>
      <point x="856" y="430" type="curve" smooth="yes"/>
      <point x="856" y="566"/>
      <point x="755" y="671"/>
      <point x="603" y="695" type="curve"/>
      <point x="611" y="739" type="line"/>
      <point x="474" y="739" type="line"/>
      <point x="466" y="695" type="line"/>
      <point x="282" y="668"/>
      <point x="95" y="520"/>
      <point x="95" y="322" type="curve" smooth="yes"/>
      <point x="95" y="186"/>
      <point x="196" y="81"/>
      <point x="348" y="57" type="curve"/>
    </contour>
    <contour>
      <point x="372" y="191" type="line"/>
      <point x="288" y="211"/>
      <point x="235" y="270"/>
      <point x="235" y="345" type="curve" smooth="yes"/>
      <point x="235" y="458"/>
      <point x="339" y="537"/>
      <point x="441" y="560" type="curve"/>
    </contour>
    <contour>
      <point x="578" y="561" type="line"/>
      <point x="662" y="541"/>
      <point x="716" y="482"/>
      <point x="716" y="407" type="curve" smooth="yes"/>
      <point x="716" y="294"/>
      <point x="611" y="214"/>
      <point x="509" y="191" type="curve"/>
    </contour>
  </outline>
</glyph>
<glyph name="Hardcyr" format="2">
  <advance width="711"/>
  <unicode hex="042A"/>
  <outline>
    <contour>
      <point x="333" y="131" type="line"/>
      <point x="368" y="319" type="line"/>
      <point x="416" y="319" type="line" smooth="yes"/>
      <point x="464" y="319"/>
      <point x="501" y="316"/>
      <point x="527" y="309" type="curve" smooth="yes"/>
      <point x="566" y="299"/>
      <point x="589" y="274"/>
      <point x="589" y="241" type="curve" smooth="yes"/>
      <point x="589" y="236"/>
      <point x="589" y="232"/>
      <point x="588" y="227" type="curve" smooth="yes"/>
      <point x="580" y="182"/>
      <point x="545" y="149"/>
      <point x="495" y="138" type="curve"/>
      <point x="468" y="133"/>
      <point x="442" y="131"/>
      <point x="388" y="131" type="curve" smooth="yes"/>
    </contour>
    <contour>
      <point x="172" y="0" type="line"/>
      <point x="360" y="0" type="line" smooth="yes"/>
      <point x="473" y="0"/>
      <point x="532" y="9"/>
      <point x="586" y="37" type="curve" smooth="yes"/>
      <point x="660" y="75"/>
      <point x="711" y="142"/>
      <point x="726" y="224" type="curve" smooth="yes"/>
      <point x="729" y="240"/>
      <point x="730" y="254"/>
      <point x="730" y="269" type="curve" smooth="yes"/>
      <point x="730" y="336"/>
      <point x="701" y="392"/>
      <point x="647" y="421" type="curve" smooth="yes"/>
      <point x="606" y="443"/>
      <point x="554" y="450"/>
      <point x="441" y="450" type="curve" smooth="yes"/>
      <point x="392" y="450" type="line"/>
      <point x="446" y="739" type="line"/>
      <point x="144" y="739" type="line"/>
      <point x="120" y="608" type="line"/>
      <point x="285" y="608" type="line"/>
    </contour>
  </outline>
</glyph>
<glyph name="Softcyr" format="2">
  <advance width="610"/>
  <unicode hex="042C"/>
  <outline>
    <contour>
      <point x="71" y="0" type="line"/>
      <point x="281" y="0" type="line" smooth="yes"/>
      <point x="511" y="0"/>
      <point x="629" y="91"/>
      <point x="629" y="269" type="curve" smooth="yes"/>
      <point x="629" y="399"/>
      <point x="547" y="450"/>
      <point x="340" y="450" type="curve" smooth="yes"/>
      <point x="291" y="450" type="line"/>
      <point x="345" y="739" type="line"/>
      <point x="208" y="739" type="line"/>
    </contour>
    <contour>
      <point x="232" y="131" type="line"/>
      <point x="267" y="319" type="line"/>
      <point x="315" y="319" type="line" smooth="yes"/>
      <point x="449" y="319"/>
      <point x="488" y="301"/>
      <point x="488" y="241" type="curve" smooth="yes"/>
      <point x="488" y="163"/>
      <point x="436" y="131"/>
      <point x="309" y="131" type="curve" smooth="yes"/>
    </contour>
  </outline>
</glyph>
<glyph name="Ereversedcyr" format="2">
  <advance width="802"/>
  <unicode hex="042D"/>
  <outline>
    <contour>
      <point x="74" y="206" type="line"/>
      <point x="107" y="71"/>
      <point x="223" y="-13"/>
      <point x="375" y="-13" type="curve" smooth="yes"/>
      <point x="614" y="-13"/>
      <point x="841" y="199"/>
      <point x="841" y="441" type="curve" smooth="yes"/>
      <point x="841" y="617"/>
      <point x="710" y="752"/>
      <point x="525" y="752" type="curve" smooth="yes"/>
      <point x="363" y="752"/>
      <point x="219" y="662"/>
      <point x="134" y="527" type="curve"/>
      <point x="287" y="527" type="line"/>
      <point x="349" y="592"/>
      <point x="412" y="620"/>
      <point x="498" y="620" type="curve" smooth="yes"/>
      <point x="614" y="620"/>
      <point x="691" y="552"/>
      <point x="700" y="438" type="curve"/>
      <point x="337" y="438" type="line"/>
      <point x="313" y="307" type="line"/>
      <point x="677" y="307" type="line"/>
      <point x="629" y="199"/>
      <point x="517" y="119"/>
      <point x="402" y="119" type="curve" smooth="yes"/>
      <point x="331" y="119"/>
      <point x="284" y="143"/>
      <point x="235" y="206" type="curve"/>
    </contour>
  </outline>
</glyph>
<glyph name="becyr" format="2">
  <advance width="651"/>
  <unicode hex="0431"/>
  <outline>
    <contour>
      <point x="91" y="217" type="curve" smooth="yes"/>
      <point x="91" y="76"/>
      <point x="181" y="-13"/>
      <point x="327" y="-13" type="curve" smooth="yes"/>
      <point x="505" y="-13"/>
      <point x="678" y="141"/>
      <point x="678" y="323" type="curve" smooth="yes"/>
      <point x="678" y="456"/>
      <point x="576" y="556"/>
      <point x="433" y="556" type="curve" smooth="yes"/>
      <point x="338" y="556"/>
      <point x="254" y="493"/>
      <point x="224" y="451" type="curve"/>
      <point x="221.084" y="451.4" type="line"/>
      <point x="246" y="577"/>
      <point x="327" y="645"/>
      <point x="472" y="657" type="curve" smooth="yes"/>
      <point x="711" y="677" type="line"/>
      <point x="734" y="796" type="line"/>
      <point x="489" y="777" type="line" smooth="yes"/>
      <point x="278" y="761"/>
      <point x="157" y="638"/>
      <point x="116" y="415" type="curve" smooth="yes"/>
      <point x="103" y="345"/>
      <point x="91" y="277"/>
    </contour>
    <contour>
      <point x="216" y="242" type="curve" smooth="yes"/>
      <point x="216" y="341"/>
      <point x="307" y="437"/>
      <point x="407" y="437" type="curve" smooth="yes"/>
      <point x="487" y="437"/>
      <point x="543" y="381"/>
      <point x="543" y="304" type="curve" smooth="yes"/>
      <point x="543" y="202"/>
      <point x="450" y="109"/>
      <point x="348" y="109" type="curve" smooth="yes"/>
      <point x="270" y="109"/>
      <point x="216" y="165"/>
    </contour>
  </outline>
</glyph>
<glyph name="eukrcyr" format="2">
  <advance width="619"/>
  <unicode hex="0454"/>
  <outline>
    <contour>
      <point x="72" y="224" type="curve" smooth="yes"/>
      <point x="72" y="88"/>
      <point x="174" y="-13"/>
      <point x="320" y="-13" type="curve" smooth="yes"/>
      <point x="445" y="-13"/>
      <point x="553" y="52"/>
      <point x="622" y="167" type="curve"/>
      <point x="467" y="167" type="line"/>
      <point x="429" y="127"/>
      <point x="390" y="109"/>
      <point x="341" y="109" type="curve" smooth="yes"/>
      <point x="274" y="109"/>
      <point x="217" y="152"/>
      <point x="210" y="220" type="curve"/>
      <point x="444" y="220" type="line"/>
      <point x="465" y="337" type="line"/>
      <point x="230" y="337" type="line"/>
      <point x="262" y="403"/>
      <point x="327" y="445"/>
      <point x="400" y="445" type="curve" smooth="yes"/>
      <point x="454" y="445"/>
      <point x="490" y="426"/>
      <point x="509" y="384" type="curve"/>
      <point x="662" y="384" type="line"/>
      <point x="638" y="491"/>
      <point x="555" y="567"/>
      <point x="423" y="567" type="curve" smooth="yes"/>
      <point x="241" y="567"/>
      <point x="72" y="408"/>
    </contour>
  </outline>
</glyph>
<glyph name="tshecyr" format="2">
  <advance width="675"/>
  <unicode hex="045B"/>
  <outline>
    <contour>
      <point x="132" y="0" type="line"/>
      <point x="265" y="0" type="line"/>
      <point x="299" y="183" type="line" smooth="yes"/>
      <point x="314" y="266"/>
      <point x="346" y="347"/>
      <point x="446" y="347" type="curve" smooth="yes"/>
      <point x="505" y="347"/>
      <point x="532" y="322"/>
      <point x="532" y="258" type="curve" smooth="yes"/>
      <point x="532" y="238"/>
      <point x="529" y="213"/>
      <point x="524" y="185" type="curve" smooth="yes"/>
      <point x="490" y="0" type="line"/>
      <point x="623" y="0" type="line"/>
      <point x="663" y="215" type="line" smooth="yes"/>
      <point x="670" y="251"/>
      <point x="673" y="280"/>
      <point x="673" y="305" type="curve" smooth="yes"/>
      <point x="673" y="412"/>
      <point x="600" y="470"/>
      <point x="493" y="470" type="curve" smooth="yes"/>
      <point x="435" y="470"/>
      <point x="389" y="454"/>
      <point x="342" y="418" type="curve"/>
      <point x="368" y="554" type="line"/>
      <point x="508" y="554" type="line"/>
      <point x="529" y="671" type="line"/>
      <point x="389" y="671" type="line"/>
      <point x="402" y="739" type="line"/>
      <point x="269" y="739" type="line"/>
      <point x="256" y="671" type="line"/>
      <point x="137" y="671" type="line"/>
      <point x="116" y="554" type="line"/>
      <point x="235" y="554" type="line"/>
    </contour>
  </outline>
</glyph>
<glyph name="omegacyr" format="2">
  <advance width="916"/>
  <unicode hex="0461"/>
  <outline>
    <contour>
      <point x="161" y="547" type="line"/>
      <point x="126" y="357" type="line" smooth="yes"/>
      <point x="120" y="322"/>
      <point x="117" y="290"/>
      <point x="117" y="261" type="curve" smooth="yes"/>
      <point x="117" y="131"/>
      <point x="174" y="53"/>
      <point x="226" y="-13" type="curve"/>
      <point x="332" y="26"/>
      <point x="426" y="108"/>
      <point x="460" y="160" type="curve"/>
      <point x="469" y="110"/>
      <point x="522" y="42"/>
      <point x="583" y="-13" type="curve"/>
      <point x="738" y="45"/>
      <point x="893" y="192"/>
      <point x="924" y="357" type="curve" smooth="yes"/>
      <point x="959" y="547" type="line"/>
      <point x="826" y="547" type="line"/>
      <point x="791" y="357" type="line" smooth="yes"/>
      <point x="768" y="234"/>
      <point x="716" y="162"/>
      <point x="656" y="113" type="curve"/>
      <point x="633" y="133"/>
      <point x="583" y="184"/>
      <point x="583" y="282" type="curve" smooth="yes"/>
      <point x="583" y="300"/>
      <point x="585" y="320"/>
      <point x="589" y="341" type="curve" smooth="yes"/>
      <point x="627" y="547" type="line"/>
      <point x="494" y="547" type="line"/>
      <point x="456" y="341" type="line" smooth="yes"/>
      <point x="437" y="239"/>
      <point x="362" y="158"/>
      <point x="299" y="113" type="curve"/>
      <point x="275" y="130"/>
      <point x="252" y="193"/>
      <point x="252" y="276" type="curve" smooth="yes"/>
      <point x="252" y="301"/>
      <point x="254" y="329"/>
      <point x="259" y="357" type="curve" smooth="yes"/>
      <point x="294" y="547" type="line"/>
    </contour>
  </outline>
</glyph>
<glyph name="Eiotifiedcyr" format="2">
  <advance width="995"/>
  <unicode hex="0464"/>
  <outline>
    <contour>
      <point x="61" y="0" type="line"/>
      <point x="198" y="0" type="line"/>
      <point x="255" y="310" type="line"/>
      <point x="295" y="310" type="line"/>
      <point x="295" y="296"/>
      <point x="296" y="282"/>
      <point x="297" y="268" type="curve"/>
      <point x="314" y="106"/>
      <point x="441" y="-10"/>
      <point x="620" y="-10" type="curve" smooth="yes"/>
      <point x="772" y="-10"/>
      <point x="919" y="74"/>
      <point x="1002" y="209" type="curve"/>
      <point x="840" y="209" type="line"/>
      <point x="767" y="146"/>
      <point x="712" y="122"/>
      <point x="641" y="122" type="curve" smooth="yes"/>
      <point x="533" y="122"/>
      <point x="454" y="192"/>
      <point x="438" y="290" type="curve" smooth="yes"/>
      <point x="437" y="297"/>
      <point x="436" y="303"/>
      <point x="436" y="310" type="curve"/>
      <point x="800" y="310" type="line"/>
      <point x="824" y="441" type="line"/>
      <point x="461" y="441" type="line"/>
      <point x="508" y="546"/>
      <point x="610" y="623"/>
      <point x="731" y="623" type="curve" smooth="yes"/>
      <point x="817" y="623"/>
      <point x="870" y="595"/>
      <point x="908" y="530" type="curve"/>
      <point x="1061" y="530" type="line"/>
      <point x="1027" y="657"/>
      <point x="919" y="755"/>
      <point x="753" y="755" type="curve" smooth="yes"/>
      <point x="566" y="755"/>
      <point x="385" y="619"/>
      <point x="321" y="441" type="curve"/>
      <point x="280" y="441" type="line"/>
      <point x="335" y="739" type="line"/>
      <point x="198" y="739" type="line"/>
    </contour>
  </outline>
</glyph>
<glyph name="Yusbigcyr" format="2">
  <advance width="883"/>
  <unicode hex="046A"/>
  <outline>
    <contour>
      <point x="182" y="0" type="line"/>
      <point x="201" y="101"/>
      <point x="286" y="270"/>
      <point x="421" y="270" type="curve"/>
      <point x="371" y="0" type="line"/>
      <point x="510" y="0" type="line"/>
      <point x="560" y="270" type="line"/>
      <point x="668" y="270"/>
      <point x="704" y="161"/>
      <point x="704" y="66" type="curve" smooth="yes"/>
      <point x="704" y="43"/>
      <point x="702" y="20"/>
      <point x="698" y="0" type="curve"/>
      <point x="862" y="0" type="line"/>
      <point x="868" y="34"/>
      <point x="872" y="70"/>
      <point x="872" y="104" type="curve" smooth="yes"/>
      <point x="872" y="252"/>
      <point x="811" y="384"/>
      <point x="685" y="384" type="curve"/>
      <point x="855" y="604" type="line"/>
      <point x="880" y="739" type="line"/>
      <point x="275" y="739" type="line"/>
      <point x="250" y="604" type="line"/>
      <point x="342" y="384" type="line"/>
      <point x="184" y="384"/>
      <point x="52" y="184"/>
      <point x="18" y="0" type="curve"/>
    </contour>
    <contour>
      <point x="508" y="405" type="line"/>
      <point x="421" y="604" type="line"/>
      <point x="669" y="604" type="line"/>
    </contour>
  </outline>
</glyph>
<glyph name="yusbigiotifiedcyr" format="2">
  <advance width="967"/>
  <unicode hex="046D"/>
  <outline>
    <contour>
      <point x="53" y="0" type="line"/>
      <point x="186" y="0" type="line"/>
      <point x="227" y="219" type="line"/>
      <point x="351" y="219" type="line"/>
      <point x="284" y="159"/>
      <point x="231" y="68"/>
      <point x="218" y="0" type="curve"/>
      <point x="362" y="0" type="line"/>
      <point x="375" y="68"/>
      <point x="456" y="172"/>
      <point x="530" y="172" type="curve"/>
      <point x="498" y="0" type="line"/>
      <point x="631" y="0" type="line"/>
      <point x="663" y="172" type="line"/>
      <point x="728" y="172"/>
      <point x="770" y="98"/>
      <point x="770" y="29" type="curve" smooth="yes"/>
      <point x="770" y="19"/>
      <point x="769" y="9"/>
      <point x="767" y="0" type="curve"/>
      <point x="911" y="0" type="line"/>
      <point x="914" y="17"/>
      <point x="916" y="34"/>
      <point x="916" y="52" type="curve" smooth="yes"/>
      <point x="916" y="164"/>
      <point x="854" y="281"/>
      <point x="749" y="281" type="curve"/>
      <point x="900" y="446" type="line"/>
      <point x="920" y="554" type="line"/>
      <point x="414" y="554" type="line"/>
      <point x="394" y="446" type="line"/>
      <point x="452" y="340" type="line"/>
      <point x="249" y="340" type="line"/>
      <point x="289" y="554" type="line"/>
      <point x="156" y="554" type="line"/>
    </contour>
    <contour>
      <point x="630" y="299" type="line"/>
      <point x="564" y="434" type="line"/>
      <point x="752" y="434" type="line"/>
    </contour>
  </outline>
</glyph>
<glyph name="Ksicyr" format="2">
  <advance width="587"/>
  <unicode hex="046E"/>
  <outline>
    <contour>
      <point x="194" y="119" type="line" smooth="yes"/>
      <point x="113" y="119"/>
      <point x="64" y="14"/>
      <point x="64" y="-58" type="curve" smooth="yes"/>
      <point x="64" y="-93"/>
      <point x="73" y="-131"/>
      <point x="95" y="-169" type="curve"/>
      <point x="235" y="-169" type="line"/>
      <point x="203" y="-136"/>
      <point x="191" y="-105"/>
      <point x="191" y="-78" type="curve" smooth="yes"/>
      <point x="191" y="-47"/>
      <point x="205" y="-13"/>
      <point x="241" y="-13" type="curve" smooth="yes"/>
      <point x="281" y="-13" type="line" smooth="yes"/>
      <point x="428" y="-13"/>
      <point x="557" y="116"/>
      <point x="557" y="262" type="curve" smooth="yes"/>
      <point x="557" y="343"/>
      <point x="518" y="395"/>
      <point x="483" y="406" type="curve"/>
      <point x="546" y="428"/>
      <point x="589" y="524"/>
      <point x="589" y="589" type="curve" smooth="yes"/>
      <point x="589" y="669"/>
      <point x="530" y="734"/>
      <point x="443" y="749" type="curve"/>
      <point x="590" y="878" type="line"/>
      <point x="459" y="878" type="line"/>
      <point x="399" y="814" type="line"/>
      <point x="365" y="878" type="line"/>
      <point x="236" y="878" type="line"/>
      <point x="330" y="752" type="line"/>
      <point x="231" y="752" type="line"/>
      <point x="207" y="620" type="line"/>
      <point x="364" y="620" type="line" smooth="yes"/>
      <point x="416" y="620"/>
      <point x="453" y="591"/>
      <point x="453" y="555" type="curve" smooth="yes"/>
      <point x="453" y="501"/>
      <point x="385" y="462"/>
      <point x="337" y="462" type="curve" smooth="yes"/>
      <point x="254" y="462" type="line"/>
      <point x="232" y="342" type="line"/>
      <point x="320" y="342" type="line" smooth="yes"/>
      <point x="362" y="342"/>
      <point x="418" y="310"/>
      <point x="418" y="240" type="curve" smooth="yes"/>
      <point x="418" y="163"/>
      <point x="345" y="119"/>
      <point x="274" y="119" type="curve" smooth="yes"/>
    </contour>
  </outline>
</glyph>
<glyph name="ksicyr" format="2">
  <advance width="531"/>
  <unicode hex="046F"/>
  <outline>
    <contour>
      <point x="188" y="109" type="line" smooth="yes"/>
      <point x="109" y="109"/>
      <point x="60" y="12"/>
      <point x="60" y="-59" type="curve" smooth="yes"/>
      <point x="60" y="-94"/>
      <point x="69" y="-131"/>
      <point x="91" y="-169" type="curve"/>
      <point x="228" y="-169" type="line"/>
      <point x="196" y="-136"/>
      <point x="184" y="-105"/>
      <point x="184" y="-78" type="curve" smooth="yes"/>
      <point x="184" y="-47"/>
      <point x="198" y="-13"/>
      <point x="234" y="-13" type="curve" smooth="yes"/>
      <point x="307" y="-13" type="line" smooth="yes"/>
      <point x="413" y="-13"/>
      <point x="515" y="88"/>
      <point x="515" y="194" type="curve" smooth="yes"/>
      <point x="515" y="246"/>
      <point x="486" y="278"/>
      <point x="450" y="292" type="curve"/>
      <point x="495" y="313"/>
      <point x="526" y="386"/>
      <point x="526" y="435" type="curve" smooth="yes"/>
      <point x="526" y="497"/>
      <point x="487" y="557"/>
      <point x="421" y="557" type="curve"/>
      <point x="558" y="686" type="line"/>
      <point x="447" y="686" type="line"/>
      <point x="386" y="627" type="line"/>
      <point x="343" y="686" type="line"/>
      <point x="214" y="686" type="line"/>
      <point x="308" y="560" type="line"/>
      <point x="223" y="560" type="line"/>
      <point x="200" y="438" type="line"/>
      <point x="338" y="438" type="line" smooth="yes"/>
      <point x="370" y="438"/>
      <point x="392" y="420"/>
      <point x="392" y="396" type="curve" smooth="yes"/>
      <point x="392" y="358"/>
      <point x="359" y="329"/>
      <point x="322" y="329" type="curve" smooth="yes"/>
      <point x="246" y="329" type="line"/>
      <point x="228" y="241" type="line"/>
      <point x="304" y="241" type="line" smooth="yes"/>
      <point x="357" y="241"/>
      <point x="380" y="216"/>
      <point x="380" y="189" type="curve" smooth="yes"/>
      <point x="380" y="143"/>
      <point x="332" y="109"/>
      <point x="289" y="109" type="curve" smooth="yes"/>
    </contour>
  </outline>
</glyph>
<glyph name="Psicyr" format="2">
  <advance width="703"/>
  <unicode hex="0470"/>
  <outline>
    <contour>
      <point x="282" y="0" type="line"/>
      <point x="419" y="0" type="line"/>
      <point x="465" y="247" type="line"/>
      <point x="635" y="261"/>
      <point x="740" y="367"/>
      <point x="771" y="536" type="curve" smooth="yes"/>
      <point x="809" y="739" type="line"/>
      <point x="672" y="739" type="line"/>
      <point x="634" y="536" type="line" smooth="yes"/>
      <point x="618" y="447"/>
      <point x="573" y="388"/>
      <point x="489" y="378" type="curve"/>
      <point x="556" y="739" type="line"/>
      <point x="419" y="739" type="line"/>
      <point x="352" y="378" type="line"/>
      <point x="282" y="385"/>
      <point x="251" y="426"/>
      <point x="251" y="489" type="curve" smooth="yes"/>
      <point x="251" y="504"/>
      <point x="253" y="519"/>
      <point x="256" y="536" type="curve" smooth="yes"/>
      <point x="294" y="739" type="line"/>
      <point x="157" y="739" type="line"/>
      <point x="119" y="536" type="line" smooth="yes"/>
      <point x="114" y="509"/>
      <point x="111" y="484"/>
      <point x="111" y="460" type="curve" smooth="yes"/>
      <point x="111" y="334"/>
      <point x="183" y="257"/>
      <point x="328" y="246" type="curve"/>
    </contour>
  </outline>
</glyph>
<glyph name="fitacyr" format="2">
  <advance width="645"/>
  <unicode hex="0473"/>
  <outline>
    <contour>
      <point x="74" y="225" type="curve" smooth="yes"/>
      <point x="74" y="90"/>
      <point x="176" y="-13"/>
      <point x="321" y="-13" type="curve" smooth="yes"/>
      <point x="501" y="-13"/>
      <point x="673" y="147"/>
      <point x="673" y="329" type="curve" smooth="yes"/>
      <point x="673" y="464"/>
      <point x="573" y="567"/>
      <point x="430" y="567" type="curve" smooth="yes"/>
      <point x="249" y="567"/>
      <point x="74" y="409"/>
    </contour>
    <contour>
      <point x="237" y="340" type="line"/>
      <point x="272" y="401"/>
      <point x="337" y="445"/>
      <point x="402" y="445" type="curve" smooth="yes"/>
      <point x="471" y="445"/>
      <point x="521" y="402"/>
      <point x="533" y="340" type="curve"/>
    </contour>
    <contour>
      <point x="211" y="219" type="curve"/>
      <point x="513" y="219" type="line"/>
      <point x="479" y="155"/>
      <point x="411" y="109"/>
      <point x="341" y="109" type="curve" smooth="yes"/>
      <point x="272" y="109"/>
      <point x="222" y="155"/>
    </contour>
  </outline>
</glyph>
<glyph name="Omegatitlocyr" format="2">
  <advance width="860"/>
  <unicode hex="047C"/>
  <outline>
    <contour>
      <point x="411" y="277" type="line"/>
      <point x="395" y="191" type="line" smooth="yes"/>
      <point x="389" y="159"/>
      <point x="350" y="119"/>
      <point x="309" y="119" type="curve" smooth="yes"/>
      <point x="267" y="119"/>
      <point x="235" y="139"/>
      <point x="235" y="193" type="curve" smooth="yes"/>
      <point x="235" y="205"/>
      <point x="237" y="216"/>
      <point x="239" y="227" type="curve" smooth="yes"/>
      <point x="289" y="497" type="line" smooth="yes"/>
      <point x="300" y="557"/>
      <point x="340" y="607"/>
      <point x="384" y="607" type="curve" smooth="yes"/>
      <point x="413" y="607" type="line"/>
      <point x="437" y="739" type="line"/>
      <point x="337" y="739" type="line" smooth="yes"/>
      <point x="254" y="739"/>
      <point x="180" y="651"/>
      <point x="151" y="497" type="curve" smooth="yes"/>
      <point x="101" y="227" type="line" smooth="yes"/>
      <point x="96" y="202"/>
      <point x="94" y="178"/>
      <point x="94" y="157" type="curve" smooth="yes"/>
      <point x="94" y="42"/>
      <point x="160" y="-13"/>
      <point x="265" y="-13" type="curve" smooth="yes"/>
      <point x="358" y="-13"/>
      <point x="420" y="52"/>
      <point x="444" y="80" type="curve"/>
      <point x="457" y="52"/>
      <point x="489" y="-13"/>
      <point x="582" y="-13" type="curve" smooth="yes"/>
      <point x="725" y="-13"/>
      <point x="811" y="60"/>
      <point x="842" y="227" type="curve" smooth="yes"/>
      <point x="892" y="497" type="line" smooth="yes"/>
      <point x="899" y="537"/>
      <point x="903" y="572"/>
      <point x="903" y="603" type="curve" smooth="yes"/>
      <point x="903" y="692"/>
      <point x="870" y="739"/>
      <point x="796" y="739" type="curve" smooth="yes"/>
      <point x="696" y="739" type="line"/>
      <point x="672" y="607" type="line"/>
      <point x="702" y="607" type="line" smooth="yes"/>
      <point x="733" y="607"/>
      <point x="759" y="586"/>
      <point x="759" y="535" type="curve" smooth="yes"/>
      <point x="759" y="524"/>
      <point x="758" y="511"/>
      <point x="755" y="497" type="curve" smooth="yes"/>
      <point x="705" y="227" type="line" smooth="yes"/>
      <point x="690" y="148"/>
      <point x="659" y="119"/>
      <point x="596" y="119" type="curve" smooth="yes"/>
      <point x="565" y="119"/>
      <point x="532" y="153"/>
      <point x="532" y="185" type="curve" smooth="yes"/>
      <point x="532" y="187"/>
      <point x="533" y="196"/>
      <point x="535" y="206" type="curve" smooth="yes"/>
      <point x="548" y="277" type="line"/>
    </contour>
    <contour>
      <point x="314" y="800" type="line"/>
      <point x="451" y="800" type="line"/>
      <point x="455" y="820" type="line" smooth="yes"/>
      <point x="461" y="853"/>
      <point x="484" y="902"/>
      <point x="565" y="902" type="curve" smooth="yes"/>
      <point x="602" y="902"/>
      <point x="633" y="882"/>
      <point x="666" y="857" type="curve" smooth="yes"/>
      <point x="705" y="828"/>
      <point x="749" y="800"/>
      <point x="809" y="800" type="curve" smooth="yes"/>
      <point x="848" y="800" type="line"/>
      <point x="871" y="934" type="line"/>
      <point x="833" y="934" type="line" smooth="yes"/>
      <point x="797" y="934"/>
      <point x="767" y="954"/>
      <point x="734" y="976" type="curve" smooth="yes"/>
      <point x="692" y="1004"/>
      <point x="645" y="1035"/>
      <point x="576" y="1035" type="curve" smooth="yes"/>
      <point x="478" y="1035"/>
      <point x="345" y="972"/>
      <point x="318" y="824" type="curve" smooth="yes"/>
    </contour>
    <contour>
      <point x="559" y="607" type="line"/>
      <point x="612" y="644"/>
      <point x="670" y="704"/>
      <point x="670" y="774" type="curve" smooth="yes"/>
      <point x="670" y="814"/>
      <point x="641" y="836"/>
      <point x="592" y="836" type="curve" smooth="yes"/>
      <point x="588" y="836" type="line" smooth="yes"/>
      <point x="533" y="836"/>
      <point x="484" y="795"/>
      <point x="484" y="738" type="curve" smooth="yes"/>
      <point x="484" y="705"/>
      <point x="509" y="689"/>
      <point x="521" y="689" type="curve" smooth="yes"/>
      <point x="526" y="689" type="line"/>
      <point x="521" y="662"/>
      <point x="482" y="631"/>
      <point x="445" y="607" type="curve"/>
    </contour>
  </outline>
</glyph>
<glyph name="otcyr" format="2">
  <advance width="917"/>
  <unicode hex="047F"/>
  <outline>
    <contour>
      <point x="161" y="547" type="line"/>
      <point x="126" y="357" type="line" smooth="yes"/>
      <point x="120" y="322"/>
      <point x="117" y="290"/>
      <point x="117" y="261" type="curve" smooth="yes"/>
      <point x="117" y="131"/>
      <point x="174" y="53"/>
      <point x="226" y="-13" type="curve"/>
      <point x="333" y="29"/>
      <point x="428" y="115"/>
      <point x="462" y="170" type="curve"/>
      <point x="470" y="117"/>
      <point x="523" y="45"/>
      <point x="583" y="-13" type="curve"/>
      <point x="738" y="45"/>
      <point x="893" y="191"/>
      <point x="924" y="357" type="curve" smooth="yes"/>
      <point x="959" y="547" type="line"/>
      <point x="826" y="547" type="line"/>
      <point x="791" y="357" type="line" smooth="yes"/>
      <point x="769" y="239"/>
      <point x="718" y="170"/>
      <point x="658" y="123" type="curve"/>
      <point x="635" y="143"/>
      <point x="586" y="216"/>
      <point x="586" y="301" type="curve" smooth="yes"/>
      <point x="586" y="314"/>
      <point x="587" y="327"/>
      <point x="590" y="341" type="curve"/>
      <point x="628" y="547" type="line"/>
      <point x="495" y="547" type="line"/>
      <point x="457" y="341" type="line" smooth="yes"/>
      <point x="439" y="244"/>
      <point x="364" y="166"/>
      <point x="301" y="123" type="curve"/>
      <point x="277" y="139"/>
      <point x="252" y="201"/>
      <point x="252" y="282" type="curve" smooth="yes"/>
      <point x="252" y="305"/>
      <point x="254" y="330"/>
      <point x="259" y="356" type="curve" smooth="yes"/>
      <point x="294" y="547" type="line"/>
    </contour>
    <contour>
      <point x="225" y="636" type="line"/>
      <point x="358" y="636" type="line"/>
      <point x="365" y="674" type="line"/>
      <point x="517" y="674" type="line"/>
      <point x="503" y="596" type="line"/>
      <point x="636" y="596" type="line"/>
      <point x="650" y="674" type="line"/>
      <point x="802" y="674" type="line"/>
      <point x="795" y="636" type="line"/>
      <point x="928" y="636" type="line"/>
      <point x="953" y="771" type="line"/>
      <point x="250" y="771" type="line"/>
    </contour>
  </outline>
</glyph>
<glyph name="dasiacombcyr" format="2">
  <unicode hex="0485"/>
  <outline>
    <contour>
      <point x="45" y="607" type="line"/>
      <point x="18" y="629"/>
      <point x="-7" y="657"/>
      <point x="-7" y="682" type="curve" smooth="yes"/>
      <point x="-7" y="684"/>
      <point x="-7" y="686"/>
      <point x="-6" y="689" type="curve"/>
      <point x="-1" y="689" type="line" smooth="yes"/>
      <point x="33" y="689"/>
      <point x="61" y="738"/>
      <point x="61" y="770" type="curve" smooth="yes"/>
      <point x="61" y="809"/>
      <point x="34" y="836"/>
      <point x="-13" y="836" type="curve" smooth="yes"/>
      <point x="-17" y="836" type="line" smooth="yes"/>
      <point x="-86" y="836"/>
      <point x="-126" y="791"/>
      <point x="-126" y="724" type="curve" smooth="yes"/>
      <point x="-126" y="674"/>
      <point x="-93" y="630"/>
      <point x="-69" y="607" type="curve"/>
    </contour>
  </outline>
</glyph>
<glyph name="quotereversed" format="2">
  <advance width="282"/>
  <unicode hex="201B"/>
  <outline>
    <contour>
      <point x="320" y="611" type="line"/>
      <point x="262" y="611" type="line"/>
      <point x="252" y="566"/>
      <point x="279" y="543"/>
      <point x="295" y="538" type="curve"/>
      <point x="281" y="471" type="line"/>
      <point x="238" y="480"/>
      <point x="171" y="534"/>
      <point x="190" y="630" type="curve" smooth="yes"/>
      <point x="212" y="739" type="line"/>
      <point x="345" y="739" type="line"/>
    </contour>
  </outline>
  <guideline angle="78.6901" x="260" y="604"/>
  <guideline angle="78.589" x="190" y="630"/>
</glyph>
<glyph name="gecyr.loclMKD" format="2">
  <advance width="438"/>
  <outline>
    <component base="gecyr.loclBGR"/>
    <contour>
      <point x="133" y="648" type="line"/>
      <point x="510" y="648" type="line"/>
      <point x="529" y="748" type="line"/>
      <point x="152" y="748" type="line"/>
    </contour>
  </outline>
</glyph>
<glyph name="pecyr.loclSRB" format="2">
  <advance width="599"/>
  <outline>
    <component base="u"/>
    <contour>
      <point x="184" y="648" type="line"/>
      <point x="641" y="648" type="line"/>
      <point x="660" y="748" type="line"/>
      <point x="203" y="748" type="line"/>
    </contour>
  </outline>
</glyph>
<glyph name="tecyr.loclSRB" format="2">
  <advance width="937"/>
  <outline>
    <component base="shacyr.loclBGR"/>
    <contour>
      <point x="184" y="648" type="line"/>
      <point x="961" y="648" type="line"/>
      <point x="980" y="748" type="line"/>
      <point x="203" y="748" type="line"/>
    </contour>
  </outline>
</glyph>
<glyph name="tsecyr.loclBGR" format="2">
  <advance width="654"/>
  <outline>
    <contour>
      <point x="423" y="0" type="line"/>
      <point x="501" y="0" type="line"/>
      <point x="478" y="-126" type="line"/>
      <point x="611" y="-126" type="line"/>
      <point x="657" y="121" type="line"/>
      <point x="568" y="121" type="line"/>
      <point x="648" y="554" type="line"/>
      <point x="515" y="554" type="line"/>
      <point x="467" y="293" type="line" smooth="yes"/>
      <point x="450" y="200"/>
      <point x="427" y="109"/>
      <point x="312" y="109" type="curve" smooth="yes"/>
      <point x="255" y="109"/>
      <point x="229" y="141"/>
      <point x="229" y="195" type="curve" smooth="yes"/>
      <point x="229" y="217"/>
      <point x="232" y="246"/>
      <point x="239" y="283" type="curve" smooth="yes"/>
      <point x="289" y="554" type="line"/>
      <point x="156" y="554" type="line"/>
      <point x="101" y="257" type="line" smooth="yes"/>
      <point x="93" y="215"/>
      <point x="89" y="182"/>
      <point x="89" y="155" type="curve" smooth="yes"/>
      <point x="89" y="51"/>
      <point x="156" y="-13"/>
      <point x="262" y="-13" type="curve" smooth="yes"/>
      <point x="329" y="-13"/>
      <point x="373" y="4"/>
      <point x="433" y="53" type="curve"/>
    </contour>
  </outline>
</glyph>
<glyph name="vecyr.loclBGR" format="2">
  <advance width="655"/>
  <outline>
    <contour>
      <point x="99" y="174" type="curve" smooth="yes"/>
      <point x="99" y="6"/>
      <point x="241" y="-14"/>
      <point x="341" y="-14" type="curve" smooth="yes"/>
      <point x="491" y="-14"/>
      <point x="650" y="103"/>
      <point x="650" y="261" type="curve" smooth="yes"/>
      <point x="650" y="334"/>
      <point x="618" y="379"/>
      <point x="584" y="400" type="curve"/>
      <point x="584" y="403" type="line"/>
      <point x="651" y="432"/>
      <point x="690" y="504"/>
      <point x="690" y="575" type="curve" smooth="yes"/>
      <point x="690" y="693"/>
      <point x="588" y="751"/>
      <point x="461" y="751" type="curve" smooth="yes"/>
      <point x="357" y="751"/>
      <point x="190" y="696"/>
      <point x="151" y="487" type="curve" smooth="yes"/>
      <point x="106" y="244" type="line" smooth="yes"/>
      <point x="101" y="218"/>
      <point x="99" y="195"/>
    </contour>
    <contour>
      <point x="233" y="202" type="curve" smooth="yes"/>
      <point x="233" y="211"/>
      <point x="234" y="221"/>
      <point x="236" y="231" type="curve" smooth="yes"/>
      <point x="285" y="489" type="line" smooth="yes"/>
      <point x="302" y="579"/>
      <point x="355" y="629"/>
      <point x="447" y="629" type="curve" smooth="yes"/>
      <point x="524" y="629"/>
      <point x="562" y="599"/>
      <point x="562" y="551" type="curve" smooth="yes"/>
      <point x="562" y="485"/>
      <point x="516" y="434"/>
      <point x="448" y="434" type="curve" smooth="yes"/>
      <point x="329" y="434" type="line"/>
      <point x="311" y="336" type="line"/>
      <point x="427" y="336" type="line" smooth="yes"/>
      <point x="490" y="336"/>
      <point x="517" y="306"/>
      <point x="517" y="258" type="curve" smooth="yes"/>
      <point x="517" y="168"/>
      <point x="445" y="108"/>
      <point x="356" y="108" type="curve" smooth="yes"/>
      <point x="274" y="108"/>
      <point x="233" y="142"/>
    </contour>
  </outline>
</glyph>
